<svg width="709" height="532" viewBox="0 0 709 532" fill="none" xmlns="http://www.w3.org/2000/svg">
<mask id="mask0_4_344" style="mask-type:alpha" maskUnits="userSpaceOnUse" x="0" y="0" width="709" height="532">
<rect x="0.5" y="0.5" width="59" height="59" stroke="black"/>
<rect x="59.5" y="0.5" width="59" height="59" stroke="black"/>
<rect x="118.5" y="0.5" width="59" height="59" stroke="black"/>
<rect x="177.5" y="0.5" width="59" height="59" stroke="black"/>
<rect x="236.5" y="0.5" width="59" height="59" stroke="black"/>
<rect x="295.5" y="0.5" width="59" height="59" stroke="black"/>
<rect x="354.5" y="0.5" width="59" height="59" stroke="black"/>
<rect x="413.5" y="0.5" width="59" height="59" stroke="black"/>
<rect x="472.5" y="0.5" width="59" height="59" stroke="black"/>
<rect x="531.5" y="0.5" width="59" height="59" stroke="black"/>
<rect x="590.5" y="0.5" width="59" height="59" stroke="black"/>
<rect x="649.5" y="0.5" width="59" height="59" stroke="black"/>
<rect x="0.5" y="59.5" width="59" height="59" stroke="black"/>
<rect x="59.5" y="59.5" width="59" height="59" stroke="black"/>
<rect x="118.5" y="59.5" width="59" height="59" stroke="black"/>
<rect x="177.5" y="59.5" width="59" height="59" stroke="black"/>
<rect x="236.5" y="59.5" width="59" height="59" stroke="black"/>
<rect x="295.5" y="59.5" width="59" height="59" stroke="black"/>
<rect x="354.5" y="59.5" width="59" height="59" stroke="black"/>
<rect x="413.5" y="59.5" width="59" height="59" stroke="black"/>
<rect x="472.5" y="59.5" width="59" height="59" stroke="black"/>
<rect x="531.5" y="59.5" width="59" height="59" stroke="black"/>
<rect x="590.5" y="59.5" width="59" height="59" stroke="black"/>
<rect x="649.5" y="59.5" width="59" height="59" stroke="black"/>
<rect x="0.5" y="118.5" width="59" height="59" stroke="black"/>
<rect x="59.5" y="118.5" width="59" height="59" stroke="black"/>
<rect x="118.5" y="118.5" width="59" height="59" stroke="black"/>
<rect x="177.5" y="118.5" width="59" height="59" stroke="black"/>
<rect x="236.5" y="118.5" width="59" height="59" stroke="black"/>
<rect x="295.5" y="118.5" width="59" height="59" stroke="black"/>
<rect x="354.5" y="118.5" width="59" height="59" stroke="black"/>
<rect x="413.5" y="118.5" width="59" height="59" stroke="black"/>
<rect x="472.5" y="118.5" width="59" height="59" stroke="black"/>
<rect x="531.5" y="118.5" width="59" height="59" stroke="black"/>
<rect x="590.5" y="118.5" width="59" height="59" stroke="black"/>
<rect x="649.5" y="118.5" width="59" height="59" stroke="black"/>
<rect x="0.5" y="177.5" width="59" height="59" stroke="black"/>
<rect x="59.5" y="177.5" width="59" height="59" stroke="black"/>
<rect x="118.5" y="177.5" width="59" height="59" stroke="black"/>
<rect x="177.5" y="177.5" width="59" height="59" stroke="black"/>
<rect x="236.5" y="177.5" width="59" height="59" stroke="black"/>
<rect x="295.5" y="177.5" width="59" height="59" stroke="black"/>
<rect x="354.5" y="177.5" width="59" height="59" stroke="black"/>
<rect x="413.5" y="177.5" width="59" height="59" stroke="black"/>
<rect x="472.5" y="177.5" width="59" height="59" stroke="black"/>
<rect x="531.5" y="177.5" width="59" height="59" stroke="black"/>
<rect x="590.5" y="177.5" width="59" height="59" stroke="black"/>
<rect x="649.5" y="177.5" width="59" height="59" stroke="black"/>
<rect x="0.5" y="236.5" width="59" height="59" stroke="black"/>
<rect x="59.5" y="236.5" width="59" height="59" stroke="black"/>
<rect x="118.5" y="236.5" width="59" height="59" stroke="black"/>
<rect x="177.5" y="236.5" width="59" height="59" stroke="black"/>
<rect x="236.5" y="236.5" width="59" height="59" stroke="black"/>
<rect x="295.5" y="236.5" width="59" height="59" stroke="black"/>
<rect x="354.5" y="236.5" width="59" height="59" stroke="black"/>
<rect x="413.5" y="236.5" width="59" height="59" stroke="black"/>
<rect x="472.5" y="236.5" width="59" height="59" stroke="black"/>
<rect x="531.5" y="236.5" width="59" height="59" stroke="black"/>
<rect x="590.5" y="236.5" width="59" height="59" stroke="black"/>
<rect x="649.5" y="236.5" width="59" height="59" stroke="black"/>
<rect x="0.5" y="295.5" width="59" height="59" stroke="black"/>
<rect x="59.5" y="295.5" width="59" height="59" stroke="black"/>
<rect x="118.5" y="295.5" width="59" height="59" stroke="black"/>
<rect x="177.5" y="295.5" width="59" height="59" stroke="black"/>
<rect x="236.5" y="295.5" width="59" height="59" stroke="black"/>
<rect x="295.5" y="295.5" width="59" height="59" stroke="black"/>
<rect x="354.5" y="295.5" width="59" height="59" stroke="black"/>
<rect x="413.5" y="295.5" width="59" height="59" stroke="black"/>
<rect x="472.5" y="295.5" width="59" height="59" stroke="black"/>
<rect x="531.5" y="295.5" width="59" height="59" stroke="black"/>
<rect x="590.5" y="295.5" width="59" height="59" stroke="black"/>
<rect x="649.5" y="295.5" width="59" height="59" stroke="black"/>
<rect x="0.5" y="354.5" width="59" height="59" stroke="black"/>
<rect x="59.5" y="354.5" width="59" height="59" stroke="black"/>
<rect x="118.5" y="354.5" width="59" height="59" stroke="black"/>
<rect x="177.5" y="354.5" width="59" height="59" stroke="black"/>
<rect x="236.5" y="354.5" width="59" height="59" stroke="black"/>
<rect x="295.5" y="354.5" width="59" height="59" stroke="black"/>
<rect x="354.5" y="354.5" width="59" height="59" stroke="black"/>
<rect x="413.5" y="354.5" width="59" height="59" stroke="black"/>
<rect x="472.5" y="354.5" width="59" height="59" stroke="black"/>
<rect x="531.5" y="354.5" width="59" height="59" stroke="black"/>
<rect x="590.5" y="354.5" width="59" height="59" stroke="black"/>
<rect x="649.5" y="354.5" width="59" height="59" stroke="black"/>
<rect x="0.5" y="413.5" width="59" height="59" stroke="black"/>
<rect x="59.5" y="413.5" width="59" height="59" stroke="black"/>
<rect x="118.5" y="413.5" width="59" height="59" stroke="black"/>
<rect x="177.5" y="413.5" width="59" height="59" stroke="black"/>
<rect x="236.5" y="413.5" width="59" height="59" stroke="black"/>
<rect x="295.5" y="413.5" width="59" height="59" stroke="black"/>
<rect x="354.5" y="413.5" width="59" height="59" stroke="black"/>
<rect x="413.5" y="413.5" width="59" height="59" stroke="black"/>
<rect x="472.5" y="413.5" width="59" height="59" stroke="black"/>
<rect x="531.5" y="413.5" width="59" height="59" stroke="black"/>
<rect x="590.5" y="413.5" width="59" height="59" stroke="black"/>
<rect x="649.5" y="413.5" width="59" height="59" stroke="black"/>
<rect x="0.5" y="472.5" width="59" height="59" stroke="black"/>
<rect x="59.5" y="472.5" width="59" height="59" stroke="black"/>
<rect x="118.5" y="472.5" width="59" height="59" stroke="black"/>
<rect x="177.5" y="472.5" width="59" height="59" stroke="black"/>
<rect x="236.5" y="472.5" width="59" height="59" stroke="black"/>
<rect x="295.5" y="472.5" width="59" height="59" stroke="black"/>
<rect x="354.5" y="472.5" width="59" height="59" stroke="black"/>
<rect x="413.5" y="472.5" width="59" height="59" stroke="black"/>
<rect x="472.5" y="472.5" width="59" height="59" stroke="black"/>
<rect x="531.5" y="472.5" width="59" height="59" stroke="black"/>
<rect x="590.5" y="472.5" width="59" height="59" stroke="black"/>
<rect x="649.5" y="472.5" width="59" height="59" stroke="black"/>
</mask>
<g mask="url(#mask0_4_344)">
<rect width="709" height="532" fill="url(#paint0_radial_4_344)"/>
</g>
<defs>
<radialGradient id="paint0_radial_4_344" cx="0" cy="0" r="1" gradientUnits="userSpaceOnUse" gradientTransform="translate(354.5 266) rotate(89.9017) scale(291.5 388.485)">
<stop stop-color="#94A3B8" stop-opacity="0.14"/>
<stop offset="1" stop-color="#94A3B8" stop-opacity="0"/>
</radialGradient>
</defs>
</svg>
